<?xml version="1.0" encoding="UTF-8"?><svg id="Layer_2" xmlns="http://www.w3.org/2000/svg" viewBox="0 0 16 16"><defs><style>.cls-1{fill:#f6b758;}.cls-2{fill:#f4e8dc;}.cls-3{fill:#ee9736;}.cls-4{fill:#875611;}.cls-5{fill:#58332b;}</style></defs><g id="Réteg_1"><g><g><path class="cls-1" d="M8.57,14.46c-.14,0-.28-.01-.42-.03l-2.2-.37c-.58-.1-1.12-.39-1.58-.84l-1.59-1.59s-.05-.05-.08-.07c-.51-.41-.7-1.04-.76-1.49l-.37-2.22c-.09-.56,.01-1.22,.28-1.76l1.08-1.92c.3-.6,.64-.94,1.2-1.22l2-1.12c.3-.15,.66-.25,1.04-.28,.36,1.84,1.82,3.29,3.67,3.63,.36,1.79,1.84,3.27,3.62,3.65-.03,.37-.14,.75-.3,1.08l-.98,1.96c-.28,.56-.74,1.02-1.3,1.3l-1.96,.98c-.41,.2-.88,.32-1.34,.32Z"/><path class="cls-3" d="M6.53,2.66c.61,1.57,1.92,2.79,3.54,3.28,.5,1.59,1.73,2.9,3.27,3.52,0,.01-.01,.03-.02,.04l-.98,1.96c-.19,.38-.51,.7-.89,.89l-1.96,.98c-.28,.14-.62,.22-.93,.22-.09,0-.18,0-.27-.02l-2.2-.37c-.38-.06-.76-.27-1.08-.59l-1.59-1.59s-.1-.09-.15-.14c-.28-.22-.39-.61-.43-.94l-.37-2.2c-.06-.36,0-.8,.18-1.16l1.08-1.91s.03-.05,.04-.08c.19-.38,.39-.58,.76-.76,.03-.01,.05-.03,.08-.04l1.91-1.07m.9-2.05c-.59,0-1.2,.14-1.76,.41l-1.96,1.1c-.73,.37-1.22,.86-1.59,1.59l-1.1,1.96c-.37,.73-.49,1.59-.37,2.32l.37,2.2c.12,.86,.49,1.59,1.1,2.08l1.59,1.59c.61,.61,1.35,.98,2.08,1.1l2.2,.37c.18,.03,.37,.05,.57,.05,.59,0,1.2-.14,1.76-.41l1.96-.98c.73-.37,1.35-.98,1.71-1.71l.98-1.96c.37-.73,.49-1.59,.37-2.32-1.96,0-3.67-1.71-3.67-3.67-1.96,0-3.67-1.59-3.67-3.67-.18-.03-.37-.05-.57-.05h0Z"/></g><path class="cls-4" d="M8.57,16c-.23,0-.45-.02-.67-.06l-2.2-.37c-.89-.15-1.73-.59-2.41-1.27l-1.59-1.59c-.67-.53-1.13-1.38-1.27-2.43L.05,8.1c-.15-.88,0-1.87,.42-2.7l1.12-1.98c.41-.82,1-1.41,1.85-1.84L5.37,.49C6.23,.06,7.22-.09,8.1,.06l.51,.09V.66c0,1.69,1.37,3.06,3.06,3.06h.61v.61c0,1.63,1.43,3.06,3.06,3.06h.52l.08,.51c.15,.88,0,1.87-.42,2.7l-.98,1.96c-.43,.85-1.13,1.56-1.99,1.99l-1.96,.98c-.63,.31-1.34,.48-2.03,.48ZM7.43,1.22c-.5,0-1.03,.12-1.48,.35l-1.93,1.09c-.64,.32-1.04,.72-1.34,1.33l-1.12,1.98c-.28,.57-.4,1.3-.3,1.92l.37,2.2c.11,.74,.41,1.33,.88,1.7l1.64,1.64c.5,.5,1.11,.82,1.75,.93l2.2,.37c.62,.1,1.35-.01,1.95-.31l1.96-.98c.62-.31,1.13-.82,1.44-1.44l.98-1.96c.23-.45,.35-.98,.35-1.48-1.85-.27-3.4-1.82-3.68-3.67-1.91-.26-3.42-1.77-3.68-3.68Z"/><circle class="cls-5" cx="5.31" cy="10.69" r=".98"/><circle class="cls-5" cx="6.16" cy="6.16" r=".98"/><circle class="cls-5" cx="10.81" cy="9.84" r=".98"/><path class="cls-2" d="M3.28,10.84c-.42-.2-.57-.72-.69-1.11-.26-1.09-.85-2.23-.36-3.34,.33-.65,.91-1.62,1.3-2.24,.72-.89,1.99-1.08,2.99-1.48-1.12,1.11-2.14,1.25-2.58,2.46,0,0-.6,1.11-.6,1.11-.55,.78-.51,1.18-.4,2.15,.15,.81-.11,1.73,.32,2.46h0Z"/></g></g></svg>